<svg width="240" height="60" viewBox="0 0 240 60" fill="none" xmlns="http://www.w3.org/2000/svg">
<g clip-path="url(#clip0_1_372)">
<path d="M78.2196 40.4796H58.0062V11.4744H78.259V17.5188H64.5212V22.8959H77.2384V28.9008H64.5212V34.4352H78.2185L78.2196 40.4796Z" fill="white"/>
<path d="M98.0012 21.0523V10.6104H104.163V40.4795H98.1979V38.1643C96.5226 40.0745 94.3907 41.0294 91.8023 41.029C88.7924 41.029 86.2674 39.9562 84.2272 37.8104C82.2115 35.6391 81.204 32.9441 81.2047 29.7253C81.2047 26.5332 82.2122 23.8505 84.2272 21.6775C86.2681 19.5058 88.7931 18.4199 91.8023 18.4199C94.2617 18.421 96.3281 19.2985 98.0012 21.0523ZM98.3157 29.6864C98.3157 28.0907 97.7923 26.7563 96.7456 25.6832C95.7251 24.5857 94.4167 24.0369 92.8202 24.0369C91.2238 24.0369 89.9024 24.5864 88.856 25.6854C87.8352 26.7844 87.325 28.1187 87.3253 29.6885C87.3253 31.3116 87.8356 32.6722 88.856 33.7705C89.9024 34.8695 91.2238 35.419 92.8202 35.419C94.4167 35.419 95.7251 34.8695 96.7456 33.7705C97.7927 32.6964 98.3162 31.335 98.3162 29.6864H98.3157Z" fill="white"/>
<path d="M118.725 41.0289C115.585 41.0289 113.119 40.1655 111.326 38.4387C109.534 36.7119 108.638 34.3176 108.638 31.2559V18.9736H114.8V31.2953C114.8 32.5514 115.147 33.5462 115.84 34.2799C116.534 35.0137 117.495 35.38 118.725 35.3789C119.955 35.3789 120.916 35.0126 121.61 34.2799C122.303 33.5473 122.649 32.5524 122.649 31.2953V18.9736H128.812V31.2585C128.812 34.3725 127.922 36.7799 126.143 38.4808C124.364 40.1817 121.891 41.0311 118.725 41.0289Z" fill="white"/>
<path d="M157.072 34.3567L158.799 39.2632C156.967 40.4404 154.769 41.029 152.205 41.029C147.075 41.029 144.511 38.1376 144.511 32.3549V24.0731H141.097V18.9736H144.551V11.3564H150.674V18.9736H157.582V24.0758H150.674V31.7649C150.674 34.1984 151.629 35.415 153.539 35.4147C154.533 35.4157 155.711 35.0631 157.072 34.3567Z" fill="white"/>
<path d="M167.549 18.9736V40.4794H161.389V18.9736H167.549Z" fill="white"/>
<path d="M189.609 23.2908L179.6 35.3796H190.04V40.4817H171.12V36.2015L181.364 24.1127H171.594V19.01H189.608L189.609 23.2908Z" fill="white"/>
<path d="M200.01 18.9736V40.4794H193.848V18.9736H200.01Z" fill="white"/>
<path d="M231.057 18.3821C233.595 18.3821 235.701 19.1671 237.376 20.7373C239.051 22.3074 239.888 24.5315 239.888 27.4095V40.4795H233.726V28.5868C233.726 27.1215 233.366 25.9964 232.647 25.2115C231.927 24.4266 230.966 24.0351 229.762 24.0369C228.453 24.0369 227.393 24.4686 226.583 25.332C225.772 26.1954 225.367 27.3466 225.366 28.7856V40.4795H219.204V28.6263C219.204 27.2135 218.831 26.0943 218.084 25.2686C217.338 24.4428 216.364 24.0323 215.161 24.0369C213.878 24.0369 212.831 24.4686 212.021 25.332C211.21 26.1954 210.805 27.3598 210.804 28.8251V40.4795H204.643V18.9737H210.648V22.035C211.25 20.8838 212.153 19.9812 213.357 19.327C214.561 18.6729 215.869 18.3588 217.282 18.3847C218.642 18.3847 219.872 18.6923 220.971 19.3073C222.071 19.9224 222.895 20.8316 223.444 22.035C224.229 20.8838 225.302 19.9876 226.663 19.3462C228.023 18.7049 229.488 18.3835 231.057 18.3821Z" fill="white"/>
<path d="M160.607 11.3564H165.981C166.322 11.3564 166.66 11.4237 166.975 11.5543C167.291 11.6849 167.577 11.8764 167.819 12.1178C168.06 12.3591 168.252 12.6457 168.382 12.961C168.513 13.2764 168.58 13.6144 168.58 13.9557V14.3624C168.58 14.7037 168.513 15.0417 168.382 15.3571C168.252 15.6725 168.06 15.959 167.819 16.2004C167.577 16.4417 167.291 16.6332 166.975 16.7638C166.66 16.8944 166.322 16.9617 165.981 16.9617H163.206C162.516 16.9617 161.855 16.6878 161.368 16.2004C160.88 15.7129 160.606 15.0518 160.606 14.3624V11.3564H160.607Z" fill="white"/>
<path d="M192.943 11.3564H198.317C199.006 11.3564 199.667 11.6303 200.155 12.1178C200.642 12.6052 200.916 13.2664 200.916 13.9557V14.3624C200.916 15.0518 200.642 15.7129 200.155 16.2004C199.667 16.6878 199.006 16.9617 198.317 16.9617H195.541C194.852 16.9617 194.191 16.6878 193.703 16.2004C193.216 15.7129 192.942 15.0518 192.942 14.3624V11.3564H192.943Z" fill="white"/>
<path d="M4.25201 11.6923L38.476 0.00148586C39.4896 2.96888 39.283 6.21742 37.9015 9.03245C36.52 11.8475 34.0768 13.9984 31.1094 15.0121L8.074 22.8809C6.5903 23.3877 4.96603 23.2844 3.55852 22.5936C2.151 21.9029 1.07554 20.6813 0.568708 19.1976C0.0618813 17.7139 0.16521 16.0896 0.855964 14.6821C1.54672 13.2746 2.76831 12.1991 4.25201 11.6923Z" fill="white"/>
<path d="M4.32288 48.4931L38.5469 36.8023C39.0489 38.2716 39.2567 39.8255 39.1582 41.3751C39.0597 42.9247 38.657 44.4398 37.9729 45.8338C37.2889 47.2277 36.337 48.4733 35.1715 49.4994C34.0061 50.5255 32.65 51.3119 31.1806 51.8139L8.14521 59.6827C7.41047 59.9336 6.63349 60.0374 5.85863 59.9881C5.08378 59.9388 4.32623 59.7373 3.62925 59.3952C2.93226 59.053 2.30951 58.577 1.79653 57.9941C1.28356 57.4113 0.890422 56.7331 0.639571 55.9983C0.132743 54.5146 0.236072 52.8904 0.926825 51.4829C1.61758 50.0754 2.83918 48.9999 4.32288 48.4931Z" fill="white"/>
<path d="M25.0964 23.1282L3.89534 30.3704C1.14692 31.3092 -0.320026 34.2984 0.618826 37.0468L1.04093 38.2824C1.97978 41.0309 4.9689 42.4978 7.71732 41.559L28.9183 34.3168C31.6668 33.3779 33.1337 30.3888 32.1949 27.6404L31.7728 26.4047C30.8339 23.6563 27.8448 22.1893 25.0964 23.1282Z" fill="white"/>
</g>
<defs>
<clipPath id="clip0_1_372">
<rect width="239.638" height="60" fill="white" transform="translate(0.25)"/>
</clipPath>
</defs>
</svg>
