<svg width="26" height="28" viewBox="0 0 26 28" fill="none" xmlns="http://www.w3.org/2000/svg">
<g clip-path="url(#clip0_1_411)">
<path d="M12.8921 11.083C12.3152 11.0832 11.7513 11.2544 11.2718 11.5751C10.7922 11.8958 10.4185 12.3514 10.1979 12.8845C9.97727 13.4175 9.91966 14.004 10.0323 14.5698C10.145 15.1355 10.4229 15.6552 10.8309 16.063C11.2389 16.4709 11.7587 16.7486 12.3245 16.8611C12.8903 16.9735 13.4768 16.9157 14.0097 16.6949C14.5427 16.4741 14.9982 16.1002 15.3187 15.6205C15.6392 15.1408 15.8102 14.5769 15.8102 14C15.8096 13.2263 15.502 12.4846 14.9548 11.9376C14.4076 11.3906 13.6657 11.0833 12.8921 11.083ZM19.7122 8.84078C19.5637 8.46445 19.3394 8.12264 19.0533 7.83656C18.7673 7.55048 18.4255 7.32623 18.0491 7.17773C16.9007 6.72437 14.1663 6.82609 12.8921 6.82609C11.6179 6.82609 8.88623 6.72055 7.73451 7.17773C7.35818 7.32623 7.01637 7.55048 6.73029 7.83656C6.44421 8.12264 6.21996 8.46445 6.07146 8.84078C5.61865 9.98922 5.71982 12.7263 5.71982 13.9995C5.71982 15.2726 5.61865 18.0064 6.07365 19.1587C6.22215 19.535 6.4464 19.8768 6.73248 20.1629C7.01855 20.449 7.36036 20.6732 7.7367 20.8217C8.88514 21.2751 11.6195 21.1734 12.8943 21.1734C14.169 21.1734 16.8996 21.2789 18.0513 20.8217C18.4276 20.6732 18.7695 20.449 19.0555 20.1629C19.3416 19.8768 19.5659 19.535 19.7144 19.1587C20.171 18.0102 20.066 15.2731 20.066 14C20.066 12.7269 20.171 9.99359 19.7144 8.84133L19.7122 8.84078ZM12.8921 18.4844C12.0052 18.4844 11.1382 18.2214 10.4007 17.7286C9.66325 17.2359 9.08848 16.5355 8.74907 15.7161C8.40966 14.8967 8.32085 13.995 8.49388 13.1251C8.66691 12.2553 9.09401 11.4562 9.72116 10.8291C10.3483 10.2019 11.1473 9.77482 12.0172 9.60179C12.8871 9.42876 13.7888 9.51757 14.6082 9.85698C15.4276 10.1964 16.128 10.7712 16.6207 11.5086C17.1135 12.2461 17.3765 13.1131 17.3765 14C17.3772 14.5891 17.2617 15.1726 17.0366 15.7169C16.8115 16.2613 16.4812 16.756 16.0646 17.1725C15.6481 17.5891 15.1534 17.9194 14.609 18.1445C14.0646 18.3696 13.4812 18.4851 12.8921 18.4844ZM17.5613 10.3742C17.3543 10.3743 17.1518 10.313 16.9796 10.1981C16.8074 10.0831 16.6732 9.91969 16.5939 9.72844C16.5146 9.53719 16.4938 9.32671 16.5341 9.12363C16.5744 8.92055 16.6741 8.73399 16.8204 8.58755C16.9668 8.44111 17.1533 8.34137 17.3564 8.30093C17.5594 8.2605 17.7699 8.2812 17.9612 8.36041C18.1525 8.43961 18.316 8.57377 18.431 8.74592C18.5461 8.91806 18.6075 9.12046 18.6075 9.3275C18.6081 9.46499 18.5815 9.60124 18.5293 9.72844C18.4771 9.85564 18.4003 9.97128 18.3033 10.0687C18.2063 10.1662 18.091 10.2435 17.9641 10.2963C17.8371 10.3491 17.701 10.3763 17.5635 10.3764L17.5613 10.3742ZM22.5171 1.75H3.26709C2.5709 1.75 1.90322 2.02656 1.41093 2.51884C0.918652 3.01113 0.64209 3.67881 0.64209 4.375L0.64209 23.625C0.64209 24.3212 0.918652 24.9889 1.41093 25.4812C1.90322 25.9734 2.5709 26.25 3.26709 26.25H22.5171C23.2133 26.25 23.881 25.9734 24.3732 25.4812C24.8655 24.9889 25.1421 24.3212 25.1421 23.625V4.375C25.1421 3.67881 24.8655 3.01113 24.3732 2.51884C23.881 2.02656 23.2133 1.75 22.5171 1.75ZM21.5808 17.6094C21.5103 19.011 21.1904 20.253 20.1672 21.2734C19.144 22.2939 17.9031 22.6204 16.5031 22.6871C15.0588 22.7686 10.7287 22.7686 9.28436 22.6871C7.88271 22.6166 6.64514 22.2961 5.62029 21.2734C4.59545 20.2508 4.27334 19.0083 4.20662 17.6094C4.12514 16.1645 4.12514 11.8338 4.20662 10.3906C4.27717 8.98898 4.59326 7.74703 5.62029 6.72656C6.64732 5.70609 7.88818 5.38344 9.28436 5.31672C10.7287 5.23523 15.0588 5.23523 16.5031 5.31672C17.9047 5.38727 19.1462 5.70773 20.1672 6.73039C21.1882 7.75305 21.5141 8.99555 21.5808 10.3972C21.6623 11.8366 21.6623 16.1634 21.5808 17.6094Z" fill="#fff"/>
</g>
<defs>
<clipPath id="clip0_1_411">
<rect width="24.5" height="28" fill="white" transform="translate(0.64209)"/>
</clipPath>
</defs>
</svg>
